# xmcd
#
# Track frame offsets: 
#        150
#        11132
#        21787
#        36342
#        48132
#        62800
#        76822
#        90662
#        102892
#        116737
#        129485
#        136455
#        149547
#        161195
#        172710
#        186935
#        199297
#        211655
#        224722
#        236467
#        246325
#        259612
#
# Disc length: 3606 seconds
#
# Revision: 0
# Processed by: cddbd v1.5.2PL0 Copyright (c) Steve Scherf et al.
# Submitted via: ExactAudioCopy v0.95b3
#
DISCID=3e0e1416
DTITLE=Various  - Black Music Originals Vol. 3  
DYEAR=1900
DGENRE=
TTITLE0=James Cotton-My Baby
TTITLE1=James Cotton-Straighten Up Baby
TTITLE2=Little Milton-Alone And Blue
TTITLE3=Little Milton-If You Love Me
TTITLE4=Billy 'The Kid' Emerson-I'm Not Going Home
TTITLE5=Billy 'The Kid' Emerson-The Woodchuck
TTITLE6=Raymond Hill-The Struggle
TTITLE7=Raymond Hill- Bourbon Street Jump
TTITLE8=James Cotton-Cotton Crop Blues
TTITLE9=JamesCotton-Hold Me In Your Arms
TTITLE10=The Prisonaires-What Will You Do Next
TTITLE11=The Prisonaires-There Is Love In You
TTITLE12=Doctor Ross-The Boogie Disease
TTITLE13=Doctor Ross-Juke Box Boogie
TTITLE14=Billy 'The Kid' Emerson-When It Rains It Pours
TTITLE15=Billy The Kid Emerson-Move Baby Move
TTITLE16=The Jones Brothers-Every Night
TTITLE17=The Jones Brothers-Look To Jesus
TTITLE18=Lewis-Johnson Combo-I Feel So Worried
TTITLE19=Lewis Johnson Combo-So LOng Baby Goodbye
TTITLE20=Billy 'The Kid' Emerson-No Greater Love
TTITLE21=Billy 'The Kid' Emerson-Red Hot
EXTD=
EXTT0=
EXTT1=
EXTT2=
EXTT3=
EXTT4=
EXTT5=
EXTT6=
EXTT7=
EXTT8=
EXTT9=
EXTT10=
EXTT11=
EXTT12=
EXTT13=
EXTT14=
EXTT15=
EXTT16=
EXTT17=
EXTT18=
EXTT19=
EXTT20=
EXTT21=
PLAYORDER=
